<?xml version="1.0" encoding="UTF-8" standalone="no"?>
<svg
   xmlns:dc="http://purl.org/dc/elements/1.1/"
   xmlns:cc="http://creativecommons.org/ns#"
   xmlns:rdf="http://www.w3.org/1999/02/22-rdf-syntax-ns#"
   xmlns:svg="http://www.w3.org/2000/svg"
   xmlns="http://www.w3.org/2000/svg"
   xmlns:sodipodi="http://sodipodi.sourceforge.net/DTD/sodipodi-0.dtd"
   xmlns:inkscape="http://www.inkscape.org/namespaces/inkscape"
   height="24"
   version="1.1"
   width="24"
   id="svg2"
   inkscape:version="0.91 r13725"
   sodipodi:docname="laptop-trusted.svg">
  <metadata
     id="metadata12">
    <rdf:RDF>
      <cc:Work
         rdf:about="">
        <dc:format>image/svg+xml</dc:format>
        <dc:type
           rdf:resource="http://purl.org/dc/dcmitype/StillImage" />
      </cc:Work>
    </rdf:RDF>
  </metadata>
  <defs
     id="defs10" />
  <sodipodi:namedview
     pagecolor="#ffffff"
     bordercolor="#666666"
     borderopacity="1"
     objecttolerance="10"
     gridtolerance="10"
     guidetolerance="10"
     inkscape:pageopacity="0"
     inkscape:pageshadow="2"
     inkscape:window-width="1360"
     inkscape:window-height="712"
     id="namedview8"
     showgrid="false"
     inkscape:zoom="27.812867"
     inkscape:cx="11.771011"
     inkscape:cy="13.623111"
     inkscape:window-x="0"
     inkscape:window-y="30"
     inkscape:window-maximized="1"
     inkscape:current-layer="svg2" />
  <title
     id="title4">
  elementary Symbolic Icon Theme
 </title>
  <path
     style="fill:#bebebe;fill-opacity:1;stroke:none;opacity:1"
     d="M 7 4 C 5.338 4 4 5.338 4 7 L 4 14 C 4 15.662 5.338 17 7 17 L 17 17 C 18.662 17 20 15.662 20 14 L 20 8.4121094 A 3.395226 3.4813528 0 0 1 18 9.2109375 L 18 14 C 18 14.554 17.554 15 17 15 L 7 15 C 6.446 15 6 14.554 6 14 L 6 7 C 6 6.446 6.446 6 7 6 L 14.449219 6 A 3.395226 3.4813528 0 0 1 14.4375 5.7363281 A 3.395226 3.4813528 0 0 1 14.892578 4 L 7 4 z M 3 18 C 3 19 4 20 4 20 L 20 20 C 21 20 21 18 21 18 L 12 18 L 3 18 z "
     id="path6" />
  <path
     inkscape:connector-curvature="0"
     d="m 19.581791,5.9507998 a 2,2 0 0 1 -4,0 2,2 0 1 1 4,0 z"
     id="path3009"
     class="error"
     style="color:#bebebe;clip-rule:nonzero;display:inline;overflow:visible;visibility:visible;opacity:1;isolation:auto;mix-blend-mode:normal;color-interpolation:sRGB;color-interpolation-filters:linearRGB;solid-color:#000000;solid-opacity:1;fill:#d33636;fill-opacity:1;fill-rule:nonzero;stroke:none;stroke-width:1.78124988;stroke-linecap:butt;stroke-linejoin:miter;stroke-miterlimit:4;stroke-dasharray:none;stroke-dashoffset:0;stroke-opacity:1;marker:none;color-rendering:auto;image-rendering:auto;shape-rendering:auto;text-rendering:auto;enable-background:new" />
</svg>
