<?xml version="1.0" encoding="UTF-8" standalone="no"?>
<svg
   xmlns:dc="http://purl.org/dc/elements/1.1/"
   xmlns:cc="http://creativecommons.org/ns#"
   xmlns:rdf="http://www.w3.org/1999/02/22-rdf-syntax-ns#"
   xmlns:svg="http://www.w3.org/2000/svg"
   xmlns="http://www.w3.org/2000/svg"
   xmlns:sodipodi="http://sodipodi.sourceforge.net/DTD/sodipodi-0.dtd"
   xmlns:inkscape="http://www.inkscape.org/namespaces/inkscape"
   height="24"
   version="1.1"
   width="24"
   id="svg2"
   inkscape:version="0.91 r13725"
   sodipodi:docname="smartphone-connected-symbolic.svg">
  <metadata
     id="metadata12">
    <rdf:RDF>
      <cc:Work
         rdf:about="">
        <dc:format>image/svg+xml</dc:format>
        <dc:type
           rdf:resource="http://purl.org/dc/dcmitype/StillImage" />
      </cc:Work>
    </rdf:RDF>
  </metadata>
  <defs
     id="defs10" />
  <sodipodi:namedview
     pagecolor="#ffffff"
     bordercolor="#666666"
     borderopacity="1"
     objecttolerance="10"
     gridtolerance="10"
     guidetolerance="10"
     inkscape:pageopacity="0"
     inkscape:pageshadow="2"
     inkscape:window-width="1360"
     inkscape:window-height="712"
     id="namedview8"
     showgrid="false"
     inkscape:zoom="22.458333"
     inkscape:cx="4.5417439"
     inkscape:cy="12"
     inkscape:window-x="0"
     inkscape:window-y="30"
     inkscape:window-maximized="1"
     inkscape:current-layer="svg2" />
  <title
     id="title4">
  elementary Symbolic Icon Theme
 </title>
  <path
     style="color:#000000;display:inline;overflow:visible;visibility:visible;fill:#bebebe;fill-opacity:1;stroke:none;stroke-width:0.99999982;marker:none;enable-background:accumulate"
     d="M 9,4 C 7.892,4 7,4.892 7,6 l 0,12 c 0,1.108 0.892,2 2,2 l 6,0 c 1.108,0 2,-0.892 2,-2 L 17,6 C 17,4.892 16.108,4 15,4 L 9,4 Z m -0.5,3 7,0 C 15.777,7 16,7.223 16,7.5 l 0,9 c 0,0.277 -0.223,0.5 -0.5,0.5 l -7,0 C 8.223,17 8,16.777 8,16.5 l 0,-9 C 8,7.223 8.223,7 8.5,7 Z M 12,17.75 c 0.41421,0 0.75,0.33579 0.75,0.75 0,0.41421 -0.33579,0.75 -0.75,0.75 -0.41421,0 -0.75,-0.33579 -0.75,-0.75 0,-0.41421 0.33579,-0.75 0.75,-0.75 z"
     id="path6"
     inkscape:connector-curvature="0" />
</svg>
