<?xml version="1.0" encoding="UTF-8" standalone="no"?>
<svg
   xmlns:dc="http://purl.org/dc/elements/1.1/"
   xmlns:cc="http://creativecommons.org/ns#"
   xmlns:rdf="http://www.w3.org/1999/02/22-rdf-syntax-ns#"
   xmlns:svg="http://www.w3.org/2000/svg"
   xmlns="http://www.w3.org/2000/svg"
   xmlns:sodipodi="http://sodipodi.sourceforge.net/DTD/sodipodi-0.dtd"
   xmlns:inkscape="http://www.inkscape.org/namespaces/inkscape"
   height="24"
   version="1.1"
   width="24"
   id="svg2"
   inkscape:version="0.91 r13725"
   sodipodi:docname="smartphone-trusted-symbolic.svg">
  <metadata
     id="metadata12">
    <rdf:RDF>
      <cc:Work
         rdf:about="">
        <dc:format>image/svg+xml</dc:format>
        <dc:type
           rdf:resource="http://purl.org/dc/dcmitype/StillImage" />
      </cc:Work>
    </rdf:RDF>
  </metadata>
  <defs
     id="defs10">
    <inkscape:perspective
       sodipodi:type="inkscape:persp3d"
       inkscape:vp_x="0 : 12 : 1"
       inkscape:vp_y="0 : 1000 : 0"
       inkscape:vp_z="24 : 12 : 1"
       inkscape:persp3d-origin="12 : 8 : 1"
       id="perspective4142" />
  </defs>
  <sodipodi:namedview
     pagecolor="#ffffff"
     bordercolor="#666666"
     borderopacity="1"
     objecttolerance="10"
     gridtolerance="10"
     guidetolerance="10"
     inkscape:pageopacity="0"
     inkscape:pageshadow="2"
     inkscape:window-width="1360"
     inkscape:window-height="712"
     id="namedview8"
     showgrid="false"
     inkscape:zoom="22.458333"
     inkscape:cx="16.36163"
     inkscape:cy="11.775325"
     inkscape:window-x="0"
     inkscape:window-y="30"
     inkscape:window-maximized="1"
     inkscape:current-layer="svg2" />
  <title
     id="title4">
  elementary Symbolic Icon Theme
 </title>
  <path
     style="color:#000000;display:inline;overflow:visible;visibility:visible;opacity:1;fill:#bebebe;fill-opacity:1;stroke:none;stroke-width:0.99999982;marker:none;enable-background:accumulate"
     d="M 9 4 C 7.892 4 7 4.892 7 6 L 7 18 C 7 19.108 7.892 20 9 20 L 15 20 C 16.108 20 17 19.108 17 18 L 17 9.0234375 A 3.395226 3.4813528 0 0 1 16 9.2402344 L 16 16.5 C 16 16.777 15.777 17 15.5 17 L 8.5 17 C 8.223 17 8 16.777 8 16.5 L 8 7.5 C 8 7.223 8.223 7 8.5 7 L 12.632812 7 A 3.395226 3.4813528 0 0 1 12.412109 5.7675781 A 3.395226 3.4813528 0 0 1 12.884766 4 L 9 4 z M 12 17.75 C 12.41421 17.75 12.75 18.08579 12.75 18.5 C 12.75 18.91421 12.41421 19.25 12 19.25 C 11.58579 19.25 11.25 18.91421 11.25 18.5 C 11.25 18.08579 11.58579 17.75 12 17.75 z "
     id="path6" />
  <path
     inkscape:connector-curvature="0"
     d="m 17.517626,5.9220776 a 2,2 0 0 1 -4,0 2,2 0 1 1 4,0 z"
     id="path3009"
     class="error"
     style="color:#bebebe;clip-rule:nonzero;display:inline;overflow:visible;visibility:visible;opacity:1;isolation:auto;mix-blend-mode:normal;color-interpolation:sRGB;color-interpolation-filters:linearRGB;solid-color:#000000;solid-opacity:1;fill:#d33636;fill-opacity:1;fill-rule:nonzero;stroke:none;stroke-width:1.78124988;stroke-linecap:butt;stroke-linejoin:miter;stroke-miterlimit:4;stroke-dasharray:none;stroke-dashoffset:0;stroke-opacity:1;marker:none;color-rendering:auto;image-rendering:auto;shape-rendering:auto;text-rendering:auto;enable-background:new" />
</svg>
