<?xml version="1.0" encoding="UTF-8" standalone="no"?>
<svg
   xmlns:dc="http://purl.org/dc/elements/1.1/"
   xmlns:cc="http://creativecommons.org/ns#"
   xmlns:rdf="http://www.w3.org/1999/02/22-rdf-syntax-ns#"
   xmlns:svg="http://www.w3.org/2000/svg"
   xmlns="http://www.w3.org/2000/svg"
   xmlns:sodipodi="http://sodipodi.sourceforge.net/DTD/sodipodi-0.dtd"
   xmlns:inkscape="http://www.inkscape.org/namespaces/inkscape"
   height="24"
   version="1.1"
   width="24"
   id="svg2"
   inkscape:version="0.91 r13725"
   sodipodi:docname="tablet-trusted-symbolic.svg">
  <metadata
     id="metadata12">
    <rdf:RDF>
      <cc:Work
         rdf:about="">
        <dc:format>image/svg+xml</dc:format>
        <dc:type
           rdf:resource="http://purl.org/dc/dcmitype/StillImage" />
        <dc:title>
  elementary Symbolic Icon Theme
 </dc:title>
      </cc:Work>
    </rdf:RDF>
  </metadata>
  <defs
     id="defs10" />
  <sodipodi:namedview
     pagecolor="#ffffff"
     bordercolor="#666666"
     borderopacity="1"
     objecttolerance="10"
     gridtolerance="10"
     guidetolerance="10"
     inkscape:pageopacity="0"
     inkscape:pageshadow="2"
     inkscape:window-width="1360"
     inkscape:window-height="712"
     id="namedview8"
     showgrid="false"
     inkscape:zoom="22.458333"
     inkscape:cx="4.5417439"
     inkscape:cy="12"
     inkscape:window-x="0"
     inkscape:window-y="30"
     inkscape:window-maximized="1"
     inkscape:current-layer="svg2" />
  <title
     id="title4">
  elementary Symbolic Icon Theme
 </title>
  <path
     style="fill:#bebebe;fill-opacity:1;stroke:none"
     d="M 7 4 C 6 4 6 5 6 5 L 6 19 C 6 20.00002 7 20 7 20 L 17 20 C 17 20 18 20.00002 18 19 L 18 8.6796875 A 3.395226 3.4813528 0 0 1 16.251953 9.1816406 A 3.395226 3.4813528 0 0 1 16 9.1679688 L 16 17.005859 L 8 17.005859 L 8 6.0039062 L 12.873047 6.0039062 A 3.395226 3.4813528 0 0 1 12.857422 5.7011719 A 3.395226 3.4813528 0 0 1 13.291016 4 L 7 4 z "
     id="path6" />
  <path
     inkscape:connector-curvature="0"
     d="m 18.118739,5.8330238 a 2,2 0 0 1 -4,0 2,2 0 1 1 4,0 z"
     id="path3009"
     class="error"
     style="color:#bebebe;clip-rule:nonzero;display:inline;overflow:visible;visibility:visible;opacity:1;isolation:auto;mix-blend-mode:normal;color-interpolation:sRGB;color-interpolation-filters:linearRGB;solid-color:#000000;solid-opacity:1;fill:#d33636;fill-opacity:1;fill-rule:nonzero;stroke:none;stroke-width:1.78124988;stroke-linecap:butt;stroke-linejoin:miter;stroke-miterlimit:4;stroke-dasharray:none;stroke-dashoffset:0;stroke-opacity:1;marker:none;color-rendering:auto;image-rendering:auto;shape-rendering:auto;text-rendering:auto;enable-background:new" />
</svg>
