<?xml version="1.0" encoding="UTF-8" standalone="no"?>
<svg
   xmlns:dc="http://purl.org/dc/elements/1.1/"
   xmlns:cc="http://creativecommons.org/ns#"
   xmlns:rdf="http://www.w3.org/1999/02/22-rdf-syntax-ns#"
   xmlns:svg="http://www.w3.org/2000/svg"
   xmlns="http://www.w3.org/2000/svg"
   xmlns:sodipodi="http://sodipodi.sourceforge.net/DTD/sodipodi-0.dtd"
   xmlns:inkscape="http://www.inkscape.org/namespaces/inkscape"
   id="svg7384"
   height="16"
   width="16"
   version="1.1"
   inkscape:version="0.91 r13725"
   sodipodi:docname="smartphone-disconnected-symbolic.svg">
  <sodipodi:namedview
     pagecolor="#ffffff"
     bordercolor="#666666"
     borderopacity="1"
     objecttolerance="10"
     gridtolerance="10"
     guidetolerance="10"
     inkscape:pageopacity="0"
     inkscape:pageshadow="2"
     inkscape:window-width="1360"
     inkscape:window-height="712"
     id="namedview7"
     showgrid="false"
     showguides="true"
     inkscape:zoom="23.732271"
     inkscape:cx="4.1775529"
     inkscape:cy="8.5945042"
     inkscape:window-x="0"
     inkscape:window-y="30"
     inkscape:window-maximized="1"
     inkscape:current-layer="svg7384" />
  <defs
     id="defs9" />
  <metadata
     id="metadata90">
    <rdf:RDF>
      <cc:Work
         rdf:about="">
        <dc:format>image/svg+xml</dc:format>
        <dc:type
           rdf:resource="http://purl.org/dc/dcmitype/StillImage" />
        <dc:title>Gnome Symbolic Icon Theme</dc:title>
      </cc:Work>
    </rdf:RDF>
  </metadata>
  <title
     id="title9167">Gnome Symbolic Icon Theme</title>
  <path
     style="fill:#bebebe"
     d="M 4.8222656 1 C 3.8039961 1 3 1.64771 3 2.46875 L 3 13.53125 C 3 14.35224 3.803934 15 4.8222656 15 L 7.0039062 15 L 7.0039062 14 L 7 14 L 7 12 L 7.0039062 12 L 7.0039062 11 L 5 11 L 5 3 L 11 3 L 11 6.546875 L 13 6.546875 L 13 2.46875 C 13 1.64776 12.196066 1 11.177734 1 L 4.8222656 1 z "
     id="path4139" />
  <path
     inkscape:connector-curvature="0"
     id="rect6718-3"
     style="color:#bebebe;fill:#f57900"
     d="m 8.4946734,7.0493302 c -0.49245,0 -0.875,0.38256 -0.875,0.875 l 0,6.2499998 c 0,0.49244 0.38255,0.875 0.875,0.875 l 6.2500006,0 c 0.49245,0 0.875,-0.38256 0.875,-0.875 l 0,-6.2499998 c 0,-0.49244 -0.38255,-0.875 -0.875,-0.875 l -6.2500006,0 z m 2.1250006,1 2,0 0,3.9999998 -2,0 0,-3.9999998 z m 0,4.9999998 2,0 0,1 -2,0 0,-1 z"
     class="warning" />
</svg>
