<?xml version="1.0" encoding="UTF-8" standalone="no"?>
<svg
   xmlns:dc="http://purl.org/dc/elements/1.1/"
   xmlns:cc="http://creativecommons.org/ns#"
   xmlns:rdf="http://www.w3.org/1999/02/22-rdf-syntax-ns#"
   xmlns:svg="http://www.w3.org/2000/svg"
   xmlns="http://www.w3.org/2000/svg"
   xmlns:sodipodi="http://sodipodi.sourceforge.net/DTD/sodipodi-0.dtd"
   xmlns:inkscape="http://www.inkscape.org/namespaces/inkscape"
   version="1.1"
   width="16"
   height="16"
   id="svg7384"
   inkscape:version="0.91 r13725"
   sodipodi:docname="tablet-disconnected-symbolic.svg">
  <sodipodi:namedview
     pagecolor="#ffffff"
     bordercolor="#666666"
     borderopacity="1"
     objecttolerance="10"
     gridtolerance="10"
     guidetolerance="10"
     inkscape:pageopacity="0"
     inkscape:pageshadow="2"
     inkscape:window-width="1360"
     inkscape:window-height="712"
     id="namedview7"
     showgrid="false"
     inkscape:zoom="33.6875"
     inkscape:cx="8"
     inkscape:cy="8"
     inkscape:window-x="0"
     inkscape:window-y="30"
     inkscape:window-maximized="1"
     inkscape:current-layer="svg7384" />
  <defs
     id="defs10" />
  <metadata
     id="metadata90">
    <rdf:RDF>
      <cc:Work
         rdf:about="">
        <dc:format>image/svg+xml</dc:format>
        <dc:type
           rdf:resource="http://purl.org/dc/dcmitype/StillImage" />
        <dc:title>Gnome Symbolic Icon Theme</dc:title>
      </cc:Work>
    </rdf:RDF>
  </metadata>
  <title
     id="title9167">Gnome Symbolic Icon Theme</title>
  <path
     style="opacity:1;fill:#bebebe;fill-opacity:1;stroke:none"
     d="M 1.7773438 2 C 1.3470743 2 1 2.4321508 1 2.96875 L 1 13.03125 C 1 13.567849 1.3470743 14 1.7773438 14 L 6.9609375 14 L 6.9609375 12 L 3 12 L 3 4 L 7 4 L 7 3 L 9 3 L 9 4 L 13 4 L 13 4.5410156 L 15 4.5410156 L 15 2.96875 C 15 2.4321508 14.652926 2 14.222656 2 L 1.7773438 2 z "
     id="rect4176" />
  <path
     inkscape:connector-curvature="0"
     id="rect6718-3"
     style="color:#bebebe;fill:#f57900"
     d="m 8.8749997,5.9661018 c -0.49245,0 -0.875,0.38256 -0.875,0.875 l 0,6.2500002 c 0,0.49244 0.38255,0.875 0.875,0.875 l 6.2500013,0 c 0.49245,0 0.875,-0.38256 0.875,-0.875 l 0,-6.2500002 c 0,-0.49244 -0.38255,-0.875 -0.875,-0.875 l -6.2500013,0 z m 2.1250013,1 2,0 0,3.9999992 -2,0 0,-3.9999992 z m 0,5.0000002 2,0 0,1 -2,0 0,-1 z"
     class="warning" />
</svg>
